<?xml version="1.0" standalone="no"?>
<!DOCTYPE svg PUBLIC "-//W3C//DTD SVG 20010904//EN"
 "http://www.w3.org/TR/2001/REC-SVG-20010904/DTD/svg10.dtd">
<svg version="1.0" xmlns="http://www.w3.org/2000/svg"
 width="432.000000pt" height="446.000000pt" viewBox="0 0 432.000000 446.000000"
 preserveAspectRatio="xMidYMid meet">
<metadata>
Created by potrace 1.10, written by Peter Selinger 2001-2011
</metadata>
<g transform="translate(0.000000,446.000000) scale(0.050000,-0.050000)"
fill="#c7c7c7" stroke="none">
<path d="M4170 6785 l0 -1275 -310 0 c-170 0 -330 3 -355 7 -44 7 -44 11 -50
400 -4 334 -10 393 -35 393 -26 0 -30 -56 -30 -388 0 -380 -1 -388 -44 -408
-97 -43 -106 -18 -106 295 0 276 -2 291 -39 291 -38 0 -40 -17 -45 -292 l-6
-291 -595 2 c-585 3 -595 2 -595 -38 0 -40 13 -41 595 -46 l595 -5 0 -70 0
-70 -490 -5 c-269 -2 -501 -4 -515 -5 -42 0 -28 -56 18 -71 23 -7 255 -10 515
-6 l472 7 5 -555 6 -554 -863 1 c-898 0 -891 1 -870 -54 12 -31 48 -33 409
-20 451 16 463 14 463 -80 l0 -67 -535 -6 c-487 -5 -535 -8 -541 -39 -6 -32
22 -35 300 -40 l306 -6 0 -1540 0 -1540 -526 -5 c-487 -5 -526 -8 -520 -40 6
-32 51 -35 526 -38 l520 -4 0 -66 0 -67 -325 -10 c-179 -5 -325 -17 -325 -25
0 -8 0 -24 0 -34 0 -13 1026 -20 2820 -21 l2820 -1 0 41 c0 40 -9 41 -732 40
-803 -2 -779 -5 -698 80 l57 60 687 0 c674 0 686 1 686 40 0 40 -10 40 -1645
40 -905 0 -1661 0 -1680 0 -33 0 -35 87 -35 1555 l0 1555 510 -6 511 -5 -1
685 c-1 377 -1 698 0 712 0 26 290 33 355 9 20 -7 25 -435 25 -2047 0 -1719 4
-2038 28 -2038 31 0 60 2453 48 4020 -6 797 -7 810 -47 816 -39 5 -40 -4 -40
-219 l1 -225 -176 -2 c-97 -2 -180 3 -184 10 -13 21 -35 2040 -23 2040 7 0 60
-30 118 -67 58 -37 258 -155 445 -262 187 -108 444 -257 570 -331 127 -74 376
-218 555 -319 l325 -185 -5 -2280 -5 -2281 -630 2 c-346 2 -643 3 -658 3 -24
0 -26 172 -16 1165 18 1758 -1 2875 -50 2875 -36 0 -37 -67 -35 -2320 2 -2278
3 -2320 40 -2320 35 0 39 15 39 151 l0 151 811 -6 811 -6 -2 2340 c-2 1347 5
2338 15 2336 10 -2 98 -51 196 -108 587 -343 629 -364 629 -300 0 16 -577 360
-740 442 -49 25 -157 85 -238 135 -81 49 -176 105 -210 125 -34 19 -165 96
-292 170 -126 75 -259 148 -295 163 -82 35 -82 53 1 83 103 37 123 32 330 -89
107 -62 307 -178 444 -257 138 -78 282 -163 320 -186 39 -24 86 -44 105 -44
59 0 38 48 -40 92 -197 109 -828 473 -1307 754 -293 171 -703 408 -910 525
-208 118 -425 245 -483 282 -58 37 -112 67 -120 67 -8 0 -15 -574 -15 -1275z
m219 934 c-6 -10 2 -14 17 -8 18 7 33 -4 39 -28 7 -29 2 -37 -17 -29 -20 7
-25 0 -16 -22 9 -25 0 -32 -42 -32 -41 0 -51 8 -42 32 7 17 18 53 24 80 7 26
20 43 30 36 10 -6 14 -19 7 -29z m-49 -2249 c14 -17 30 -27 35 -21 26 25 68
-54 55 -104 -19 -78 -162 -126 -199 -67 -66 107 34 282 109 192z m-944 -117
l7 -76 -77 7 c-77 6 -110 66 -79 145 25 65 143 5 149 -76z m774 -693 l0 -550
-355 -5 -355 -6 0 561 0 561 355 -6 355 -5 0 -550z m-842 -608 c81 -11 116
-67 80 -125 -63 -102 -132 -140 -118 -65 7 34 3 37 -21 18 -16 -14 -23 -35
-17 -47 6 -13 -3 -6 -19 14 -17 20 -25 51 -18 68 8 21 4 27 -12 17 -13 -8 -23
-2 -23 15 0 54 24 93 57 93 29 1 29 3 3 22 -23 16 -19 18 17 7 27 -7 58 -15
71 -17z m-163 -1784 c3 -842 -1 -1541 -8 -1552 -9 -16 -597 -25 -1022 -16 -8
0 -15 698 -15 1550 l0 1550 520 0 520 0 5 -1532z m205 -609 c12 -10 19 -195
18 -492 l-2 -477 -68 0 -68 0 -10 480 c-11 539 2 588 130 489z"/>
</g>
</svg>
